<mxfile host="app.diagrams.net" modified="2020-08-03T01:08:31.443Z" agent="5.0 (Macintosh; Intel Mac OS X 10_15_6) AppleWebKit/605.1.15 (KHTML, like Gecko) Version/13.1.2 Safari/605.1.15" etag="lxo2DcbX0WoFWh54XtNt" version="13.5.8" type="github">
  <diagram id="XaZREZc8fkgCS3SGShDu" name="Page-1">
    <mxGraphModel dx="1228" dy="819" grid="1" gridSize="10" guides="1" tooltips="1" connect="1" arrows="1" fold="1" page="1" pageScale="1" pageWidth="827" pageHeight="1169" math="0" shadow="0">
      <root>
        <mxCell id="0" />
        <mxCell id="1" parent="0" />
        <mxCell id="veKPN-2m2McWOUiU09cr-2" value="" style="rounded=0;whiteSpace=wrap;html=1;fillColor=#CCCCCC;" vertex="1" parent="1">
          <mxGeometry x="80" y="150" width="160" height="280" as="geometry" />
        </mxCell>
        <mxCell id="veKPN-2m2McWOUiU09cr-3" value="Length: L" style="text;html=1;resizable=0;autosize=1;align=center;verticalAlign=middle;points=[];fillColor=none;strokeColor=none;rounded=0;" vertex="1" parent="1">
          <mxGeometry x="10" y="250" width="70" height="20" as="geometry" />
        </mxCell>
        <mxCell id="veKPN-2m2McWOUiU09cr-4" value="Filters: 1&lt;br&gt;Channels: d" style="text;html=1;resizable=0;autosize=1;align=center;verticalAlign=middle;points=[];fillColor=none;strokeColor=none;rounded=0;" vertex="1" parent="1">
          <mxGeometry x="125" y="105" width="80" height="30" as="geometry" />
        </mxCell>
        <mxCell id="veKPN-2m2McWOUiU09cr-5" value="" style="whiteSpace=wrap;html=1;rounded=0;fillColor=#999999;" vertex="1" parent="1">
          <mxGeometry x="334" y="150" width="40" height="280" as="geometry" />
        </mxCell>
        <mxCell id="veKPN-2m2McWOUiU09cr-7" value="" style="whiteSpace=wrap;html=1;rounded=0;fillColor=#CCCCCC;" vertex="1" parent="1">
          <mxGeometry x="344" y="160" width="40" height="280" as="geometry" />
        </mxCell>
        <mxCell id="veKPN-2m2McWOUiU09cr-9" value="" style="whiteSpace=wrap;html=1;rounded=0;fillColor=#999999;" vertex="1" parent="1">
          <mxGeometry x="354" y="170" width="40" height="280" as="geometry" />
        </mxCell>
        <mxCell id="veKPN-2m2McWOUiU09cr-8" value="" style="whiteSpace=wrap;html=1;rounded=0;fillColor=#CCCCCC;" vertex="1" parent="1">
          <mxGeometry x="364" y="180" width="40" height="280" as="geometry" />
        </mxCell>
        <mxCell id="veKPN-2m2McWOUiU09cr-10" value="" style="rounded=0;whiteSpace=wrap;html=1;fillColor=#B3B3B3;" vertex="1" parent="1">
          <mxGeometry x="120" y="210" width="40" height="10" as="geometry" />
        </mxCell>
        <mxCell id="veKPN-2m2McWOUiU09cr-14" value="kernel (1xc)" style="text;html=1;resizable=0;autosize=1;align=center;verticalAlign=middle;points=[];fillColor=none;strokeColor=none;rounded=0;" vertex="1" parent="1">
          <mxGeometry x="110" y="220" width="80" height="20" as="geometry" />
        </mxCell>
        <mxCell id="veKPN-2m2McWOUiU09cr-15" value="Filters: d/c&lt;br&gt;channels: c" style="text;html=1;resizable=0;autosize=1;align=center;verticalAlign=middle;points=[];fillColor=none;strokeColor=none;rounded=0;" vertex="1" parent="1">
          <mxGeometry x="310" y="105" width="80" height="30" as="geometry" />
        </mxCell>
        <mxCell id="veKPN-2m2McWOUiU09cr-16" value="" style="whiteSpace=wrap;html=1;rounded=0;fillColor=#999999;" vertex="1" parent="1">
          <mxGeometry x="374" y="190" width="40" height="280" as="geometry" />
        </mxCell>
        <mxCell id="veKPN-2m2McWOUiU09cr-17" value="" style="whiteSpace=wrap;html=1;aspect=fixed;fillColor=#B3B3B3;" vertex="1" parent="1">
          <mxGeometry x="384" y="240" width="10" height="10" as="geometry" />
        </mxCell>
        <mxCell id="veKPN-2m2McWOUiU09cr-12" value="" style="endArrow=classic;html=1;exitX=1;exitY=0.75;exitDx=0;exitDy=0;entryX=0;entryY=0.5;entryDx=0;entryDy=0;" edge="1" parent="1" source="veKPN-2m2McWOUiU09cr-10" target="veKPN-2m2McWOUiU09cr-17">
          <mxGeometry width="50" height="50" relative="1" as="geometry">
            <mxPoint x="390" y="440" as="sourcePoint" />
            <mxPoint x="316" y="304" as="targetPoint" />
          </mxGeometry>
        </mxCell>
        <mxCell id="veKPN-2m2McWOUiU09cr-19" value="Length: L" style="text;html=1;resizable=0;autosize=1;align=center;verticalAlign=middle;points=[];fillColor=none;strokeColor=none;rounded=0;" vertex="1" parent="1">
          <mxGeometry x="260" y="300" width="70" height="20" as="geometry" />
        </mxCell>
        <mxCell id="veKPN-2m2McWOUiU09cr-30" value="" style="edgeStyle=orthogonalEdgeStyle;rounded=0;orthogonalLoop=1;jettySize=auto;html=1;" edge="1" parent="1" source="veKPN-2m2McWOUiU09cr-20">
          <mxGeometry relative="1" as="geometry">
            <mxPoint x="580" y="342.5" as="targetPoint" />
          </mxGeometry>
        </mxCell>
        <mxCell id="veKPN-2m2McWOUiU09cr-20" value="" style="whiteSpace=wrap;html=1;rounded=0;fillColor=#999999;" vertex="1" parent="1">
          <mxGeometry x="544" y="235" width="16" height="135" as="geometry" />
        </mxCell>
        <mxCell id="veKPN-2m2McWOUiU09cr-21" value="" style="whiteSpace=wrap;html=1;rounded=0;fillColor=#CCCCCC;" vertex="1" parent="1">
          <mxGeometry x="554" y="245" width="16" height="135" as="geometry" />
        </mxCell>
        <mxCell id="veKPN-2m2McWOUiU09cr-22" value="" style="whiteSpace=wrap;html=1;rounded=0;fillColor=#999999;" vertex="1" parent="1">
          <mxGeometry x="564" y="255" width="16" height="135" as="geometry" />
        </mxCell>
        <mxCell id="veKPN-2m2McWOUiU09cr-23" value="" style="whiteSpace=wrap;html=1;rounded=0;fillColor=#CCCCCC;" vertex="1" parent="1">
          <mxGeometry x="574" y="265" width="16" height="135" as="geometry" />
        </mxCell>
        <mxCell id="veKPN-2m2McWOUiU09cr-24" value="Filters: d/c&lt;br&gt;channels: 1" style="text;html=1;resizable=0;autosize=1;align=center;verticalAlign=middle;points=[];fillColor=none;strokeColor=none;rounded=0;" vertex="1" parent="1">
          <mxGeometry x="532" y="190" width="80" height="30" as="geometry" />
        </mxCell>
        <mxCell id="veKPN-2m2McWOUiU09cr-28" value="" style="endArrow=classic;html=1;exitX=1;exitY=0.421;exitDx=0;exitDy=0;exitPerimeter=0;" edge="1" parent="1" source="veKPN-2m2McWOUiU09cr-16">
          <mxGeometry width="50" height="50" relative="1" as="geometry">
            <mxPoint x="390" y="440" as="sourcePoint" />
            <mxPoint x="540" y="309" as="targetPoint" />
          </mxGeometry>
        </mxCell>
        <mxCell id="veKPN-2m2McWOUiU09cr-29" value="Signature &lt;br&gt;Transform" style="text;html=1;resizable=0;autosize=1;align=center;verticalAlign=middle;points=[];fillColor=none;strokeColor=none;rounded=0;" vertex="1" parent="1">
          <mxGeometry x="439" y="275" width="70" height="30" as="geometry" />
        </mxCell>
        <mxCell id="veKPN-2m2McWOUiU09cr-31" value="" style="whiteSpace=wrap;html=1;rounded=0;fillColor=#999999;" vertex="1" parent="1">
          <mxGeometry x="584" y="275" width="16" height="135" as="geometry" />
        </mxCell>
      </root>
    </mxGraphModel>
  </diagram>
</mxfile>
